Jump_normalized_Motion_pl04
version=1
nRows=21
nColumns=43
inDegrees=yes
endheader
time		pelvis_tilt		pelvis_list		pelvis_rotation		pelvis_tx		pelvis_ty		pelvis_tz		hip_flexion_r		hip_adduction_r		hip_rotation_r		knee_angle_r		ankle_angle_r		subtalar_angle_r		mtp_angle_r		hip_flexion_l		hip_adduction_l		hip_rotation_l		knee_angle_l		ankle_angle_l		subtalar_angle_l		mtp_angle_l		lumbar_extension		lumbar_bending		lumbar_rotation		neck_flexion		neck_lateral_bending		neck_rotation		arm_flex_r		arm_add_r		arm_rot_r		elbow_flex_r		pro_sup_r		wrist_flex_r		wrist_dev_r		hand_finger_flex_r		arm_flex_l		arm_add_l		arm_rot_l		elbow_flex_l		pro_sup_l		wrist_flex_l		wrist_dev_l		hand_finger_flex_l		
0.145833		2.276172		-15.634808		87.230722		0.071427		1.794455		1.688266		63.083588		-0.423604		4.082912		-139.422042		23.349617		7.784682		25.683286		74.022175		-5.972797		15.779455		-139.395118		-10.258968		17.175450		28.131357		-42.299904		-0.538419		5.848001		34.262264		1.388644		-3.733531		80.152994		-25.719649		6.714076		77.911129		114.251824		-3.223918		-9.577499		-8.379136		76.771933		-20.211591		11.609863		59.553085		101.684722		-20.046260		-7.619834		11.530501		
0.148005		2.203854		-15.585241		87.222061		0.071350		1.795305		1.684193		62.441899		-0.455594		4.140369		-139.151757		23.196916		7.724728		25.719958		73.955423		-5.849864		15.504562		-138.901836		-11.734156		16.587949		27.706098		-42.160514		-0.587317		5.812737		34.032363		1.441931		-3.756259		80.462950		-25.659522		6.883046		77.769706		114.420673		-3.048575		-9.466470		-8.291074		76.859531		-20.135311		11.575638		59.503044		101.459989		-20.083380		-7.697720		11.485286		
0.150177		2.061471		-15.529647		87.220225		0.071208		1.796136		1.680094		61.813205		-0.553214		4.252131		-138.908228		23.030725		7.637705		25.722524		73.852484		-5.679321		15.164759		-138.373411		-13.009512		16.236233		27.419482		-42.023939		-0.692803		5.707685		33.749175		1.584628		-3.813958		80.771708		-25.662225		7.110052		77.628569		114.559054		-2.872536		-9.362718		-8.207331		76.910810		-20.025652		11.461669		59.507254		101.296651		-20.145127		-7.764433		11.439804		
0.152348		2.008497		-15.463875		87.189880		0.071187		1.796969		1.675986		61.168356		-0.524418		4.306195		-138.635036		22.836521		7.551426		25.730318		73.803495		-5.633978		14.886394		-137.803112		-14.589464		15.612843		27.083529		-41.906003		-0.739891		5.706052		33.526290		1.597796		-3.815724		81.088003		-25.559943		7.258266		77.455336		114.722693		-2.717440		-9.240043		-8.124246		76.999975		-19.969277		11.432999		59.449303		101.110475		-20.151367		-7.858685		11.399252		
0.154520		1.977897		-15.480165		87.184921		0.071160		1.797729		1.671904		60.614978		-0.509255		4.300426		-138.338301		22.650658		7.394469		25.797528		73.867396		-5.589206		14.506655		-137.222071		-16.038592		14.254766		26.725645		-41.713200		-0.742844		5.702658		33.377759		1.519718		-3.752990		81.348621		-25.397056		7.335534		77.323095		115.064332		-2.531952		-9.128449		-7.992283		77.076503		-19.998715		11.507241		59.389167		100.693252		-20.113311		-8.123837		11.305217		
0.156692		1.845005		-15.458610		87.181191		0.071035		1.798446		1.667796		60.048927		-0.584567		4.413029		-138.083688		22.437758		7.299496		25.813569		73.816045		-5.458266		14.158399		-136.613016		-16.983633		13.864222		26.554896		-41.543681		-0.837500		5.615811		33.089952		1.608559		-3.782712		81.612466		-25.378817		7.523061		77.194433		115.264288		-2.366022		-9.045590		-7.895982		77.129754		-19.941021		11.460453		59.377306		100.461564		-20.146447		-8.240688		11.235602		
0.158864		1.734971		-15.421490		87.173329		0.070933		1.799147		1.663681		59.476130		-0.629392		4.513237		-137.829018		22.192290		7.222752		25.817424		73.767983		-5.363631		13.871655		-135.981507		-17.880518		13.719045		26.459069		-41.384781		-0.918544		5.551840		32.819643		1.680628		-3.808758		81.887565		-25.340473		7.723224		77.016892		115.433740		-2.214596		-8.954856		-7.807422		77.201941		-19.871524		11.428736		59.312563		100.276198		-20.172189		-8.317505		11.172173		
0.161035		1.649143		-15.399527		87.176207		0.070836		1.799813		1.659569		58.921997		-0.661660		4.581032		-137.564348		21.935609		7.137019		25.826652		73.758044		-5.280214		13.611116		-135.342137		-18.661583		13.566445		26.431030		-41.212968		-0.972116		5.503336		32.566077		1.708967		-3.812324		82.148719		-25.288528		7.913305		76.841270		115.614862		-2.069055		-8.869355		-7.711597		77.277130		-19.821669		11.434021		59.230455		100.077493		-20.180779		-8.411833		11.102529		
0.163207		1.582895		-15.432293		87.196074		0.070737		1.800419		1.655472		58.420149		-0.681795		4.622612		-137.283797		21.731921		7.073561		25.832397		73.797827		-5.194259		13.375556		-134.713418		-19.059337		13.482588		26.457528		-41.000727		-1.005925		5.472367		32.366806		1.728804		-3.812017		82.353184		-25.257778		8.054445		76.738375		115.747474		-1.964405		-8.818695		-7.638428		77.337631		-19.777646		11.449951		59.198118		99.930417		-20.184872		-8.490500		11.048762		
0.165379		1.541234		-15.508671		87.217182		0.070651		1.800987		1.651393		57.963586		-0.666959		4.648901		-136.990022		21.574449		7.053511		25.823743		73.876667		-5.135527		13.164320		-134.099231		-19.085793		13.512142		26.499104		-40.757726		-1.028367		5.472539		32.255622		1.756757		-3.819482		82.517178		-25.226181		8.144254		76.670123		115.804837		-1.907602		-8.790042		-7.601271		77.398460		-19.715009		11.464964		59.183363		99.869857		-20.187440		-8.510460		11.023264		
0.167551		1.352738		-15.438475		87.218617		0.070388		1.801614		1.647264		57.417681		-0.824347		4.810349		-136.760733		21.153908		6.929344		25.816620		73.818995		-4.965570		12.785114		-133.459678		-19.268566		13.609799		26.673993		-40.610748		-1.152135		5.320160		31.838462		1.855469		-3.858536		82.835127		-25.233534		8.487963		76.387717		116.021384		-1.688178		-8.682118		-7.456072		77.476098		-19.625333		11.442805		59.002484		99.640120		-20.223514		-8.558822		10.920545		
0.169722		1.250985		-15.403215		87.233213		0.070186		1.802221		1.643113		56.889018		-0.887246		4.892363		-136.499259		20.764904		6.809783		25.835096		73.785615		-4.869262		12.464885		-132.857185		-18.974472		13.731237		26.999014		-40.449280		-1.207533		5.254753		31.538129		1.885385		-3.869377		83.074960		-25.204000		8.709592		76.175055		116.238114		-1.532671		-8.623641		-7.313154		77.558130		-19.570336		11.517116		58.851342		99.394669		-20.230741		-8.621957		10.799231		
0.171894		1.145938		-15.390154		87.257987		0.069973		1.802809		1.638975		56.384909		-0.964636		4.966001		-136.228796		20.402952		6.689681		25.869388		73.771127		-4.758373		12.132818		-132.274780		-18.370745		13.895025		27.404483		-40.276289		-1.268496		5.181006		31.268566		1.940890		-3.898520		83.294874		-25.189124		8.907993		75.982769		116.456199		-1.393140		-8.588184		-7.163190		77.643332		-19.512883		11.603652		58.712562		99.147093		-20.247254		-8.655539		10.660517		
0.174066		1.045630		-15.374473		87.276186		0.069792		1.803411		1.634834		55.883601		-1.029801		5.041458		-135.949266		20.030036		6.577604		25.912743		73.753272		-4.666179		11.794570		-131.710627		-17.591271		14.064466		27.845762		-40.112949		-1.338554		5.119201		31.007056		2.007012		-3.938860		83.506011		-25.178775		9.087090		75.795950		116.674795		-1.268736		-8.564422		-7.008408		77.733949		-19.455063		11.707102		58.576069		98.915035		-20.266710		-8.647952		10.513837		
0.176237		0.950094		-15.351976		87.299775		0.069610		1.804009		1.630680		55.380736		-1.095531		5.111225		-135.668476		19.649109		6.473104		25.960959		73.740533		-4.580427		11.435670		-131.155223		-16.723702		14.197110		28.278625		-39.960045		-1.407164		5.058327		30.754454		2.081751		-3.988667		83.707078		-25.176603		9.265185		75.607599		116.893175		-1.153515		-8.545970		-6.851400		77.825006		-19.393701		11.818448		58.437470		98.712355		-20.287247		-8.598236		10.369877		
0.178409		0.856754		-15.320170		87.330991		0.069421		1.804594		1.626506		54.874944		-1.165294		5.176121		-135.392056		19.253946		6.372316		26.010177		73.729051		-4.503382		11.043289		-130.608888		-15.812592		14.259904		28.675738		-39.816618		-1.473263		4.995113		30.504717		2.165435		-4.047540		83.901575		-25.183522		9.453645		75.412309		117.114560		-1.043431		-8.528012		-6.692948		77.914861		-19.328636		11.931557		58.292372		98.544551		-20.306348		-8.510010		10.236096		
0.180581		0.777227		-15.261894		87.354523		0.069265		1.805177		1.622283		54.342256		-1.207683		5.234227		-135.115661		18.832020		6.238396		26.101122		73.687738		-4.467517		10.622593		-130.079022		-14.858315		14.218329		29.095505		-39.701048		-1.537275		4.958266		30.265717		2.235507		-4.110171		84.083336		-25.188481		9.621679		75.220409		117.394320		-0.959770		-8.531761		-6.493825		78.006962		-19.273957		12.080826		58.149998		98.381898		-20.322245		-8.384511		10.079037		
0.182753		0.726029		-15.166530		87.364709		0.069155		1.805762		1.617996		53.762040		-1.201218		5.271299		-134.831453		18.390006		6.034783		26.287595		73.606226		-4.484776		10.195957		-129.561822		-13.899309		14.055649		29.613264		-39.628954		-1.591281		4.968468		30.061531		2.267365		-4.170030		84.239584		-25.179916		9.731544		75.049150		117.792763		-0.928284		-8.584849		-6.205875		78.102590		-19.243810		12.302559		58.024801		98.186009		-20.335495		-8.227324		9.854442		
0.184924		0.606022		-15.170330		87.468061		0.068875		1.806220		1.613835		53.323096		-1.376281		5.298996		-134.575726		17.989587		6.001524		26.311265		73.713001		-4.335711		9.758807		-128.998621		-13.365864		13.924318		29.757205		-39.449316		-1.641674		4.810573		29.816668		2.420704		-4.257872		84.447510		-25.213780		10.011832		74.818015		117.972214		-0.799372		-8.529700		-6.064310		78.175727		-19.154113		12.328716		57.835478		98.131019		-20.343549		-8.100243		9.790322		
0.187096		0.505013		-15.061403		87.467459		0.068719		1.806755		1.609574		52.778928		-1.425174		5.421122		-134.301103		17.426120		5.907904		26.348727		73.652452		-4.332041		9.273921		-128.475345		-12.581053		13.553504		29.904299		-39.389519		-1.748056		4.778283		29.500335		2.507947		-4.340860		84.656699		-25.271856		10.249051		74.593444		118.230872		-0.713197		-8.494990		-5.889065		78.275961		-19.085262		12.441596		57.662255		98.115313		-20.308512		-7.928202		9.733445		
0.189268		0.421860		-14.945143		87.510920		0.068510		1.807257		1.605286		52.220503		-1.497826		5.485793		-134.031183		16.897171		5.786063		26.413729		73.607779		-4.289522		8.811382		-127.940470		-11.995247		13.079334		29.973988		-39.344168		-1.811429		4.736698		29.258081		2.575767		-4.427295		84.847074		-25.327788		10.474162		74.385249		118.527956		-0.655888		-8.477928		-5.693253		78.385914		-19.006483		12.551216		57.481150		98.124402		-20.264296		-7.744955		9.681100		
